<svg xmlns="http://www.w3.org/2000/svg" xmlns:xlink="http://www.w3.org/1999/xlink" contentStyleType="text/css" data-diagram-type="DESCRIPTION" height="1875px" preserveAspectRatio="none" style="width:1243px;height:1875px;background:#FFFFFF;" version="1.1" viewBox="0 0 1243 1875" width="1243px" zoomAndPan="magnify"><defs/><g><!--cluster Platforme de Trading--><g class="cluster" data-entity="Platforme de Trading" data-source-line="12" data-uid="ent0007" id="cluster_Platforme de Trading"><rect fill="none" height="1771" rx="2.5" ry="2.5" style="stroke:#181818;stroke-width:1;" width="948.55" x="99.14" y="7"/><text fill="#000000" font-family="sans-serif" font-size="14" font-weight="bold" lengthAdjust="spacing" textLength="167.8701" x="489.4799" y="21.9951">Platforme de Trading</text></g><!--cluster Transactions--><g class="cluster" data-entity="Transactions" data-source-line="14" data-uid="ent0008" id="cluster_Transactions"><path d="M780.11,565 L882.4664,565 A3.75,3.75 0 0 1 884.9664,567.5 L891.9664,587.2969 L1021.19,587.2969 A2.5,2.5 0 0 1 1023.69,589.7969 L1023.69,807.5 A2.5,2.5 0 0 1 1021.19,810 L780.11,810 A2.5,2.5 0 0 1 777.61,807.5 L777.61,567.5 A2.5,2.5 0 0 1 780.11,565" fill="none" style="stroke:#000000;stroke-width:1.5;"/><line style="stroke:#000000;stroke-width:1.5;" x1="777.61" x2="891.9664" y1="587.2969" y2="587.2969"/><text fill="#000000" font-family="sans-serif" font-size="14" font-weight="bold" lengthAdjust="spacing" textLength="101.3564" x="781.61" y="579.9951">Transactions</text></g><!--cluster Trading--><g class="cluster" data-entity="Trading" data-source-line="20" data-uid="ent0012" id="cluster_Trading"><path d="M469.07,50 L530.78,50 A3.75,3.75 0 0 1 533.28,52.5 L540.28,72.2969 L676.85,72.2969 A2.5,2.5 0 0 1 679.35,74.7969 L679.35,559.5 A2.5,2.5 0 0 1 676.85,562 L469.07,562 A2.5,2.5 0 0 1 466.57,559.5 L466.57,52.5 A2.5,2.5 0 0 1 469.07,50" fill="none" style="stroke:#000000;stroke-width:1.5;"/><line style="stroke:#000000;stroke-width:1.5;" x1="466.57" x2="540.28" y1="72.2969" y2="72.2969"/><text fill="#000000" font-family="sans-serif" font-size="14" font-weight="bold" lengthAdjust="spacing" textLength="60.71" x="470.57" y="64.9951">Trading</text></g><!--cluster FundsManagment--><g class="cluster" data-entity="FundsManagment" data-source-line="36" data-uid="ent0022" id="cluster_FundsManagment"><path d="M125.64,586 L268.0482,586 A3.75,3.75 0 0 1 270.5482,588.5 L277.5482,608.2969 L660.3,608.2969 A2.5,2.5 0 0 1 662.8,610.7969 L662.8,885.5 A2.5,2.5 0 0 1 660.3,888 L125.64,888 A2.5,2.5 0 0 1 123.14,885.5 L123.14,588.5 A2.5,2.5 0 0 1 125.64,586" fill="none" style="stroke:#000000;stroke-width:1.5;"/><line style="stroke:#000000;stroke-width:1.5;" x1="123.14" x2="277.5482" y1="608.2969" y2="608.2969"/><text fill="#000000" font-family="sans-serif" font-size="14" font-weight="bold" lengthAdjust="spacing" textLength="141.4082" x="127.14" y="600.9951">FundsManagment</text></g><!--cluster Notifications--><g class="cluster" data-entity="Notifications" data-source-line="61" data-uid="ent0039" id="cluster_Notifications"><path d="M147.87,912 L249.7411,912 A3.75,3.75 0 0 1 252.2411,914.5 L259.2411,934.2969 L678.11,934.2969 A2.5,2.5 0 0 1 680.61,936.7969 L680.61,1256.5 A2.5,2.5 0 0 1 678.11,1259 L147.87,1259 A2.5,2.5 0 0 1 145.37,1256.5 L145.37,914.5 A2.5,2.5 0 0 1 147.87,912" fill="none" style="stroke:#000000;stroke-width:1.5;"/><line style="stroke:#000000;stroke-width:1.5;" x1="145.37" x2="259.2411" y1="934.2969" y2="934.2969"/><text fill="#000000" font-family="sans-serif" font-size="14" font-weight="bold" lengthAdjust="spacing" textLength="100.8711" x="149.37" y="926.9951">Notifications</text></g><!--cluster AccountManagment--><g class="cluster" data-entity="AccountManagment" data-source-line="75" data-uid="ent0047" id="cluster_AccountManagment"><path d="M157.58,1283 L315.8134,1283 A3.75,3.75 0 0 1 318.3134,1285.5 L325.3134,1305.2969 L671.57,1305.2969 A2.5,2.5 0 0 1 674.07,1307.7969 L674.07,1442.5 A2.5,2.5 0 0 1 671.57,1445 L157.58,1445 A2.5,2.5 0 0 1 155.08,1442.5 L155.08,1285.5 A2.5,2.5 0 0 1 157.58,1283" fill="none" style="stroke:#000000;stroke-width:1.5;"/><line style="stroke:#000000;stroke-width:1.5;" x1="155.08" x2="325.3134" y1="1305.2969" y2="1305.2969"/><text fill="#000000" font-family="sans-serif" font-size="14" font-weight="bold" lengthAdjust="spacing" textLength="157.2334" x="159.08" y="1297.9951">AccountManagment</text></g><!--cluster administration--><g class="cluster" data-entity="administration" data-source-line="86" data-uid="ent0054" id="cluster_administration"><path d="M139.36,1469 L256.4342,1469 A3.75,3.75 0 0 1 258.9342,1471.5 L265.9342,1491.2969 L349.35,1491.2969 A2.5,2.5 0 0 1 351.85,1493.7969 L351.85,1751.5 A2.5,2.5 0 0 1 349.35,1754 L139.36,1754 A2.5,2.5 0 0 1 136.86,1751.5 L136.86,1471.5 A2.5,2.5 0 0 1 139.36,1469" fill="none" style="stroke:#000000;stroke-width:1.5;"/><line style="stroke:#000000;stroke-width:1.5;" x1="136.86" x2="265.9342" y1="1491.2969" y2="1491.2969"/><text fill="#000000" font-family="sans-serif" font-size="14" font-weight="bold" lengthAdjust="spacing" textLength="116.0742" x="140.86" y="1483.9951">administration</text></g><!--entity miningTransaction--><g class="entity" data-entity="miningTransaction" data-source-line="15" data-uid="ent0009" id="entity_miningTransaction"><ellipse cx="900.6528" cy="769.9986" fill="#F1F1F1" rx="107.0428" ry="23.8086" style="stroke:#181818;stroke-width:0.5;"/><text fill="#000000" font-family="sans-serif" font-size="14" lengthAdjust="spacing" textLength="191.4678" x="804.9189" y="774.647">Process Crypto Transaction</text></g><!--entity fiatAuthConf--><g class="entity" data-entity="fiatAuthConf" data-source-line="16" data-uid="ent0010" id="entity_fiatAuthConf"><ellipse cx="900.655" cy="688.997" fill="#F1F1F1" rx="97.585" ry="21.917" style="stroke:#181818;stroke-width:0.5;"/><text fill="#000000" font-family="sans-serif" font-size="14" lengthAdjust="spacing" textLength="170.7207" x="815.2946" y="693.6454">Process Fiat Transaction</text></g><!--entity processOrder--><g class="entity" data-entity="processOrder" data-source-line="17" data-uid="ent0011" id="entity_processOrder"><ellipse cx="900.6506" cy="615.9961" fill="#F1F1F1" rx="66.7806" ry="15.7561" style="stroke:#181818;stroke-width:0.5;"/><text fill="#000000" font-family="sans-serif" font-size="14" lengthAdjust="spacing" textLength="98.1436" x="851.5788" y="620.6446">Process Order</text></g><!--entity CancelOrder--><g class="entity" data-entity="CancelOrder" data-source-line="22" data-uid="ent0013" id="entity_CancelOrder"><ellipse cx="572.9646" cy="174.0029" fill="#F1F1F1" rx="64.4146" ry="15.2829" style="stroke:#181818;stroke-width:0.5;"/><text fill="#000000" font-family="sans-serif" font-size="14" lengthAdjust="spacing" textLength="91.9092" x="527.01" y="178.6514">Cancel Order</text></g><!--entity search--><g class="entity" data-entity="search" data-source-line="23" data-uid="ent0014" id="entity_search"><ellipse cx="572.9629" cy="239.0026" fill="#F1F1F1" rx="62.8129" ry="14.9626" style="stroke:#181818;stroke-width:0.5;"/><text fill="#000000" font-family="sans-serif" font-size="14" lengthAdjust="spacing" textLength="87.582" x="529.1718" y="243.651">search coins</text></g><!--entity chart_visual--><g class="entity" data-entity="chart_visual" data-source-line="24" data-uid="ent0015" id="entity_chart_visual"><ellipse cx="572.9553" cy="307.0031" fill="#F1F1F1" rx="76.6653" ry="17.7331" style="stroke:#181818;stroke-width:0.5;"/><text fill="#000000" font-family="sans-serif" font-size="14" lengthAdjust="spacing" textLength="122.7461" x="511.5823" y="311.6515">chart visualisaion</text></g><!--entity hist_trade--><g class="entity" data-entity="hist_trade" data-source-line="25" data-uid="ent0016" id="entity_hist_trade"><ellipse cx="572.9647" cy="377.9969" fill="#F1F1F1" rx="78.2847" ry="18.0569" style="stroke:#181818;stroke-width:0.5;"/><text fill="#000000" font-family="sans-serif" font-size="14" lengthAdjust="spacing" textLength="126.6152" x="509.657" y="382.6454">view trade history</text></g><!--entity clientSupport--><g class="entity" data-entity="clientSupport" data-source-line="26" data-uid="ent0017" id="entity_clientSupport"><ellipse cx="572.9625" cy="451.9985" fill="#F1F1F1" rx="90.3925" ry="20.4785" style="stroke:#181818;stroke-width:0.5;"/><text fill="#000000" font-family="sans-serif" font-size="14" lengthAdjust="spacing" textLength="154.6289" x="495.6481" y="456.6469">request client support</text></g><!--entity buy--><g class="entity" data-entity="buy" data-source-line="27" data-uid="ent0018" id="entity_buy"><ellipse cx="572.9636" cy="527.0007" fill="#F1F1F1" rx="85.4036" ry="19.4807" style="stroke:#181818;stroke-width:0.5;"/><text fill="#000000" font-family="sans-serif" font-size="14" lengthAdjust="spacing" textLength="143.2539" x="501.3366" y="531.6491">buy crypto Currency</text></g><!--entity sell--><g class="entity" data-entity="sell" data-source-line="28" data-uid="ent0019" id="entity_sell"><ellipse cx="572.9618" cy="103.9964" fill="#F1F1F1" rx="85.2818" ry="19.4564" style="stroke:#181818;stroke-width:0.5;"/><text fill="#000000" font-family="sans-serif" font-size="14" lengthAdjust="spacing" textLength="142.9736" x="501.475" y="108.6448">sell Crypto Currency</text></g><!--entity deposit--><g class="entity" data-entity="deposit" data-source-line="38" data-uid="ent0023" id="entity_deposit"><ellipse cx="244.3533" cy="793.0036" fill="#F1F1F1" rx="40.8433" ry="14.5236" style="stroke:#181818;stroke-width:0.5;"/><text fill="#000000" font-family="sans-serif" font-size="14" lengthAdjust="spacing" textLength="53.5186" x="217.5941" y="797.6521">Deposit</text></g><!--entity depositCrypto--><g class="entity" data-entity="depositCrypto" data-source-line="39" data-uid="ent0024" id="entity_depositCrypto"><ellipse cx="572.9605" cy="720.9981" fill="#F1F1F1" rx="67.7905" ry="15.9581" style="stroke:#181818;stroke-width:0.5;"/><text fill="#000000" font-family="sans-serif" font-size="14" lengthAdjust="spacing" textLength="100.7549" x="522.5831" y="725.6465">crypto deposit</text></g><!--entity depositFiat--><g class="entity" data-entity="depositFiat" data-source-line="40" data-uid="ent0025" id="entity_depositFiat"><ellipse cx="572.9645" cy="656.0036" fill="#F1F1F1" rx="58.8345" ry="14.5236" style="stroke:#181818;stroke-width:0.5;"/><text fill="#000000" font-family="sans-serif" font-size="14" lengthAdjust="spacing" textLength="78.9619" x="533.4835" y="660.6521">fiat deposit</text></g><!--entity withdraw--><g class="entity" data-entity="withdraw" data-source-line="41" data-uid="ent0026" id="entity_withdraw"><ellipse cx="244.3511" cy="857.0036" fill="#F1F1F1" rx="50.2111" ry="14.5236" style="stroke:#181818;stroke-width:0.5;"/><text fill="#000000" font-family="sans-serif" font-size="14" lengthAdjust="spacing" textLength="66.7666" x="210.9678" y="861.6521">Withdraw</text></g><!--entity withdrawCrypto--><g class="entity" data-entity="withdrawCrypto" data-source-line="42" data-uid="ent0027" id="entity_withdrawCrypto"><ellipse cx="572.9573" cy="854.9975" fill="#F1F1F1" rx="73.8373" ry="17.1675" style="stroke:#181818;stroke-width:0.5;"/><text fill="#000000" font-family="sans-serif" font-size="14" lengthAdjust="spacing" textLength="115.8965" x="515.0091" y="859.6459">crypto Withdraw</text></g><!--entity withdrawFiat--><g class="entity" data-entity="withdrawFiat" data-source-line="43" data-uid="ent0028" id="entity_withdrawFiat"><ellipse cx="572.9598" cy="786.998" fill="#F1F1F1" rx="65.2398" ry="15.448" style="stroke:#181818;stroke-width:0.5;"/><text fill="#000000" font-family="sans-serif" font-size="14" lengthAdjust="spacing" textLength="94.1035" x="525.9081" y="791.6464">fiat Withdraw</text></g><!--entity transactionHistory--><g class="entity" data-entity="transactionHistory" data-source-line="45" data-uid="ent0029" id="entity_transactionHistory"><ellipse cx="244.3522" cy="644.0024" fill="#F1F1F1" rx="105.2122" ry="23.4424" style="stroke:#181818;stroke-width:0.5;"/><text fill="#000000" font-family="sans-serif" font-size="14" lengthAdjust="spacing" textLength="187.4824" x="150.611" y="648.6509">check Transactions history</text></g><!--entity balanceHistory--><g class="entity" data-entity="balanceHistory" data-source-line="46" data-uid="ent0030" id="entity_balanceHistory"><ellipse cx="244.3542" cy="723.0028" fill="#F1F1F1" rx="88.3642" ry="20.0728" style="stroke:#181818;stroke-width:0.5;"/><text fill="#000000" font-family="sans-serif" font-size="14" lengthAdjust="spacing" textLength="150.0283" x="169.3401" y="727.6513">check Wallet Balance</text></g><!--entity verifyAlert--><g class="entity" data-entity="verifyAlert" data-source-line="63" data-uid="ent0040" id="entity_verifyAlert"><ellipse cx="572.9568" cy="1214.9994" fill="#F1F1F1" rx="91.6468" ry="20.7294" style="stroke:#181818;stroke-width:0.5;"/><text fill="#000000" font-family="sans-serif" font-size="14" lengthAdjust="spacing" textLength="153.0088" x="494.2273" y="1219.6478">verify alert conditions</text></g><!--entity sendAlert--><g class="entity" data-entity="sendAlert" data-source-line="64" data-uid="ent0041" id="entity_sendAlert"><ellipse cx="244.3452" cy="1228.0036" fill="#F1F1F1" rx="59.1052" ry="14.5236" style="stroke:#181818;stroke-width:0.5;"/><text fill="#000000" font-family="sans-serif" font-size="14" lengthAdjust="spacing" textLength="70.4443" x="204.6728" y="1232.6521">send alert</text></g><!--entity notif_history--><g class="entity" data-entity="notif_history" data-source-line="65" data-uid="ent0042" id="entity_notif_history"><ellipse cx="244.3452" cy="1094.997" fill="#F1F1F1" rx="82.9852" ry="18.997" style="stroke:#181818;stroke-width:0.5;"/><text fill="#000000" font-family="sans-serif" font-size="14" lengthAdjust="spacing" textLength="137.6621" x="175.5142" y="1099.6455">check alerts history</text></g><!--entity createAlert--><g class="entity" data-entity="createAlert" data-source-line="66" data-uid="ent0043" id="entity_createAlert"><ellipse cx="244.3467" cy="1163.9973" fill="#F1F1F1" rx="60.9867" ry="14.5973" style="stroke:#181818;stroke-width:0.5;"/><text fill="#000000" font-family="sans-serif" font-size="14" lengthAdjust="spacing" textLength="82.5234" x="203.085" y="1168.6458">create Alert</text></g><!--entity modifyAlert--><g class="entity" data-entity="modifyAlert" data-source-line="67" data-uid="ent0044" id="entity_modifyAlert"><ellipse cx="244.3537" cy="962.0027" fill="#F1F1F1" rx="61.8637" ry="14.7727" style="stroke:#181818;stroke-width:0.5;"/><text fill="#000000" font-family="sans-serif" font-size="14" lengthAdjust="spacing" textLength="84.9707" x="201.8683" y="966.6512">modify alert</text></g><!--entity deleteAlert--><g class="entity" data-entity="deleteAlert" data-source-line="68" data-uid="ent0045" id="entity_deleteAlert"><ellipse cx="244.3528" cy="1026.0036" fill="#F1F1F1" rx="60.1928" ry="14.5236" style="stroke:#181818;stroke-width:0.5;"/><text fill="#000000" font-family="sans-serif" font-size="14" lengthAdjust="spacing" textLength="80.8828" x="203.9114" y="1030.6521">delete alert</text></g><!--entity register--><g class="entity" data-entity="register" data-source-line="77" data-uid="ent0048" id="entity_register"><ellipse cx="244.3464" cy="1399.9953" fill="#F1F1F1" rx="73.2764" ry="17.0553" style="stroke:#181818;stroke-width:0.5;"/><text fill="#000000" font-family="sans-serif" font-size="14" lengthAdjust="spacing" textLength="114.5225" x="187.0852" y="1404.6437">register account</text></g><!--entity login--><g class="entity" data-entity="login" data-source-line="78" data-uid="ent0049" id="entity_login"><ellipse cx="244.3504" cy="1333.0036" fill="#F1F1F1" rx="29.8804" ry="14.5236" style="stroke:#181818;stroke-width:0.5;"/><text fill="#000000" font-family="sans-serif" font-size="14" lengthAdjust="spacing" textLength="38.0146" x="225.3431" y="1337.6521">Login</text></g><!--entity verifyLogin--><g class="entity" data-entity="verifyLogin" data-source-line="79" data-uid="ent0050" id="entity_verifyLogin"><ellipse cx="572.9624" cy="1337.0045" fill="#F1F1F1" rx="81.1224" ry="18.6245" style="stroke:#181818;stroke-width:0.5;"/><text fill="#000000" font-family="sans-serif" font-size="14" lengthAdjust="spacing" textLength="133.3145" x="506.3052" y="1341.6529">verify Login details</text></g><!--entity verify_identity--><g class="entity" data-entity="verify_identity" data-source-line="80" data-uid="ent0051" id="entity_verify_identity"><ellipse cx="572.9566" cy="1410.0013" fill="#F1F1F1" rx="85.1066" ry="19.4213" style="stroke:#181818;stroke-width:0.5;"/><text fill="#000000" font-family="sans-serif" font-size="14" lengthAdjust="spacing" textLength="142.5703" x="501.6715" y="1414.6498">Verify Users identity</text></g><!--entity user_block--><g class="entity" data-entity="user_block" data-source-line="88" data-uid="ent0055" id="entity_user_block"><ellipse cx="244.3456" cy="1519.0036" fill="#F1F1F1" rx="54.0056" ry="14.5236" style="stroke:#181818;stroke-width:0.5;"/><text fill="#000000" font-family="sans-serif" font-size="14" lengthAdjust="spacing" textLength="72.1328" x="208.2792" y="1523.6521">block user</text></g><!--entity addCoin--><g class="entity" data-entity="addCoin" data-source-line="89" data-uid="ent0056" id="entity_addCoin"><ellipse cx="244.3549" cy="1583.0036" fill="#F1F1F1" rx="45.3049" ry="14.5236" style="stroke:#181818;stroke-width:0.5;"/><text fill="#000000" font-family="sans-serif" font-size="14" lengthAdjust="spacing" textLength="59.8281" x="214.4408" y="1587.6521">add coin</text></g><!--entity deleteCoin--><g class="entity" data-entity="deleteCoin" data-source-line="90" data-uid="ent0057" id="entity_deleteCoin"><ellipse cx="244.3481" cy="1647.0036" fill="#F1F1F1" rx="57.8581" ry="14.5236" style="stroke:#181818;stroke-width:0.5;"/><text fill="#000000" font-family="sans-serif" font-size="14" lengthAdjust="spacing" textLength="77.5811" x="205.5576" y="1651.6521">delete coin</text></g><!--entity handleSupport--><g class="entity" data-entity="handleSupport" data-source-line="91" data-uid="ent0058" id="entity_handleSupport"><ellipse cx="244.352" cy="1716.9984" fill="#F1F1F1" rx="91.492" ry="20.6984" style="stroke:#181818;stroke-width:0.5;"/><text fill="#000000" font-family="sans-serif" font-size="14" lengthAdjust="spacing" textLength="157.1104" x="165.7969" y="1721.6468">Handle Support Issues</text></g><!--entity t--><g class="entity" data-entity="t" data-source-line="4" data-uid="ent0002" id="entity_t"><ellipse cx="29.0713" cy="693.35" fill="#F1F1F1" rx="8" ry="8" style="stroke:#181818;stroke-width:0.5;"/><path d="M29.0713,701.35 L29.0713,728.35 M16.0713,709.35 L42.0713,709.35 M29.0713,728.35 L16.0713,743.35 M29.0713,728.35 L42.0713,743.35" fill="none" style="stroke:#181818;stroke-width:0.5;"/><text fill="#000000" font-family="sans-serif" font-size="14" lengthAdjust="spacing" textLength="46.1426" x="6" y="757.8451">Trader</text></g><!--entity a--><g class="entity" data-entity="a" data-source-line="5" data-uid="ent0003" id="entity_a"><ellipse cx="29.0721" cy="1617.35" fill="#F1F1F1" rx="8" ry="8" style="stroke:#181818;stroke-width:0.5;"/><path d="M29.0721,1625.35 L29.0721,1652.35 M16.0721,1633.35 L42.0721,1633.35 M29.0721,1652.35 L16.0721,1667.35 M29.0721,1652.35 L42.0721,1667.35" fill="none" style="stroke:#181818;stroke-width:0.5;"/><text fill="#000000" font-family="sans-serif" font-size="14" lengthAdjust="spacing" textLength="44.8643" x="6.64" y="1681.8451">Admin</text></g><!--entity s--><g class="entity" data-entity="s" data-source-line="6" data-uid="ent0004" id="entity_s"><ellipse cx="900.6533" cy="1802.35" fill="#F1F1F1" rx="8" ry="8" style="stroke:#181818;stroke-width:0.5;"/><path d="M900.6533,1810.35 L900.6533,1837.35 M887.6533,1818.35 L913.6533,1818.35 M900.6533,1837.35 L887.6533,1852.35 M900.6533,1837.35 L913.6533,1852.35" fill="none" style="stroke:#181818;stroke-width:0.5;"/><text fill="#000000" font-family="sans-serif" font-size="14" lengthAdjust="spacing" textLength="59.2266" x="871.04" y="1866.8451">systeme</text></g><!--entity blockchainNetwork--><g class="entity" data-entity="blockchainNetwork" data-source-line="7" data-uid="ent0005" id="entity_blockchainNetwork"><ellipse cx="1165.835" cy="755.35" fill="#F1F1F1" rx="8" ry="8" style="stroke:#181818;stroke-width:0.5;"/><path d="M1165.835,763.35 L1165.835,790.35 M1152.835,771.35 L1178.835,771.35 M1165.835,790.35 L1152.835,805.35 M1165.835,790.35 L1178.835,805.35" fill="none" style="stroke:#181818;stroke-width:0.5;"/><text fill="#000000" font-family="sans-serif" font-size="14" lengthAdjust="spacing" textLength="142.29" x="1094.69" y="819.8451">Reseaux BlockChain</text></g><!--entity PaymentGateway--><g class="entity" data-entity="PaymentGateway" data-source-line="8" data-uid="ent0006" id="entity_PaymentGateway"><ellipse cx="1165.8374" cy="644.35" fill="#F1F1F1" rx="8" ry="8" style="stroke:#181818;stroke-width:0.5;"/><path d="M1165.8374,652.35 L1165.8374,679.35 M1152.8374,660.35 L1178.8374,660.35 M1165.8374,679.35 L1152.8374,694.35 M1165.8374,679.35 L1178.8374,694.35" fill="none" style="stroke:#181818;stroke-width:0.5;"/><text fill="#000000" font-family="sans-serif" font-size="14" lengthAdjust="spacing" textLength="128.2148" x="1101.73" y="708.8451">Payment Gateway</text></g><!--link buy to processOrder--><g class="link" data-entity-1="buy" data-entity-2="processOrder" data-source-line="33" data-uid="lnk20" id="link_buy_processOrder"><path d="M629.21,542.1 C693.09,559.56 791.1723,586.358 849.8523,602.398" fill="none" id="buy-to-processOrder" style="stroke:#181818;stroke-width:1;stroke-dasharray:7.0,7.0;"/><polygon fill="#181818" points="855.64,603.98,848.0132,597.7485,850.8169,602.6616,845.9038,605.4654,855.64,603.98" style="stroke:#181818;stroke-width:1;"/><text fill="#000000" font-family="sans-serif" font-size="13" lengthAdjust="spacing" textLength="63.0068" x="697.61" y="557.0669">&#171;include&#187;</text></g><!--link sell to processOrder--><g class="link" data-entity-1="sell" data-entity-2="processOrder" data-source-line="34" data-uid="lnk21" id="link_sell_processOrder"><path d="M641.99,115.76 C658.71,121.23 675.54,129.25 688.61,141 C837.56,274.96 885.9453,527.8632 896.4153,594.2532" fill="none" id="sell-to-processOrder" style="stroke:#181818;stroke-width:1;stroke-dasharray:7.0,7.0;"/><polygon fill="#181818" points="897.35,600.18,899.8992,590.6668,896.5711,595.241,891.9968,591.913,897.35,600.18" style="stroke:#181818;stroke-width:1;"/><text fill="#000000" font-family="sans-serif" font-size="13" lengthAdjust="spacing" textLength="63.0068" x="697.61" y="147.0669">&#171;include&#187;</text></g><!--reverse link withdraw to withdrawFiat--><g class="link" data-entity-1="withdraw" data-entity-2="withdrawFiat" data-source-line="48" data-uid="lnk31" id="link_withdraw_withdrawFiat"><path d="M303.3299,844.5761 C363.4899,831.6761 458.89,811.24 523.45,797.4" fill="none" id="withdraw-backto-withdrawFiat" style="stroke:#181818;stroke-width:1;"/><polygon fill="none" points="285.73,848.35,304.5879,850.4427,302.072,838.7094,285.73,848.35" style="stroke:#181818;stroke-width:1;"/></g><!--reverse link withdraw to withdrawCrypto--><g class="link" data-entity-1="withdraw" data-entity-2="withdrawCrypto" data-source-line="49" data-uid="lnk32" id="link_withdraw_withdrawCrypto"><path d="M312.9597,856.5905 C367.2097,856.2605 436.69,855.83 498.82,855.45" fill="none" id="withdraw-backto-withdrawCrypto" style="stroke:#181818;stroke-width:1;"/><polygon fill="none" points="294.96,856.7,312.9962,862.5904,312.9232,850.5906,294.96,856.7" style="stroke:#181818;stroke-width:1;"/></g><!--reverse link deposit to depositCrypto--><g class="link" data-entity-1="deposit" data-entity-2="depositCrypto" data-source-line="50" data-uid="lnk33" id="link_deposit_depositCrypto"><path d="M297.268,781.5554 C355.248,768.7754 455.19,746.74 522.2,731.97" fill="none" id="deposit-backto-depositCrypto" style="stroke:#181818;stroke-width:1;"/><polygon fill="none" points="279.69,785.43,298.5596,787.4148,295.9765,775.6961,279.69,785.43" style="stroke:#181818;stroke-width:1;"/></g><!--reverse link deposit to depositFiat--><g class="link" data-entity-1="deposit" data-entity-2="depositFiat" data-source-line="51" data-uid="lnk34" id="link_deposit_depositFiat"><path d="M299.046,782.7778 C322.246,777.7778 334.99,773.36 359.85,761 C369.71,756.1 370.75,752.59 379.57,746 C414.46,719.93 419.42,707.11 458.57,688 C479.71,677.68 504.73,670.18 525.89,665.04" fill="none" id="deposit-backto-depositFiat" style="stroke:#181818;stroke-width:1;"/><polygon fill="none" points="281.45,786.57,300.3101,788.6431,297.7819,776.9124,281.45,786.57" style="stroke:#181818;stroke-width:1;"/></g><!--link withdrawCrypto to miningTransaction--><g class="link" data-entity-1="withdrawCrypto" data-entity-2="miningTransaction" data-source-line="56" data-uid="lnk35" id="link_withdrawCrypto_miningTransaction"><path d="M635.77,845.57 C672.62,839.35 720.15,830.27 761.61,819 C790.07,811.27 815.4688,802.578 840.8688,793.098" fill="none" id="withdrawCrypto-to-miningTransaction" style="stroke:#181818;stroke-width:1;stroke-dasharray:7.0,7.0;"/><polygon fill="#181818" points="846.49,791,836.6595,790.3995,841.8056,792.7483,839.4568,797.8945,846.49,791" style="stroke:#181818;stroke-width:1;"/><text fill="#000000" font-family="sans-serif" font-size="13" lengthAdjust="spacing" textLength="53.8726" x="702.61" y="815.0669">includes</text></g><!--link depositCrypto to miningTransaction--><g class="link" data-entity-1="depositCrypto" data-entity-2="miningTransaction" data-source-line="57" data-uid="lnk36" id="link_depositCrypto_miningTransaction"><path d="M634.61,728.01 C653.69,732.77 673.66,740.73 688.61,754 C695.46,760.09 688.97,767.93 696.61,773 C736.4,799.43 785.0562,798.1636 827.5962,790.0536" fill="none" id="depositCrypto-to-miningTransaction" style="stroke:#181818;stroke-width:1;stroke-dasharray:7.0,7.0;"/><polygon fill="#181818" points="833.49,788.93,823.9001,786.6862,828.5785,789.8664,825.3983,794.5447,833.49,788.93" style="stroke:#181818;stroke-width:1;"/><text fill="#000000" font-family="sans-serif" font-size="13" lengthAdjust="spacing" textLength="53.8726" x="702.61" y="769.0669">includes</text></g><!--link withdrawFiat to fiatAuthConf--><g class="link" data-entity-1="withdrawFiat" data-entity-2="fiatAuthConf" data-source-line="58" data-uid="lnk37" id="link_withdrawFiat_fiatAuthConf"><path d="M616.21,775.05 C637.89,768.86 664.69,761.13 688.61,754 C724.71,743.23 733.6,740.1 769.61,729 C793.2,721.73 813.4649,715.4931 835.9749,708.5731" fill="none" id="withdrawFiat-to-fiatAuthConf" style="stroke:#181818;stroke-width:1;stroke-dasharray:7.0,7.0;"/><polygon fill="#181818" points="841.71,706.81,831.9319,705.6312,836.9307,708.2792,834.2827,713.278,841.71,706.81" style="stroke:#181818;stroke-width:1;"/><text fill="#000000" font-family="sans-serif" font-size="13" lengthAdjust="spacing" textLength="53.8726" x="702.61" y="728.0669">includes</text></g><!--link depositFiat to fiatAuthConf--><g class="link" data-entity-1="depositFiat" data-entity-2="fiatAuthConf" data-source-line="59" data-uid="lnk38" id="link_depositFiat_fiatAuthConf"><path d="M628.11,661.49 C677.85,666.53 746.5205,673.4854 804.9705,679.4054" fill="none" id="depositFiat-to-fiatAuthConf" style="stroke:#181818;stroke-width:1;stroke-dasharray:7.0,7.0;"/><polygon fill="#181818" points="810.94,680.01,802.3889,675.1235,805.9655,679.5062,801.5827,683.0827,810.94,680.01" style="stroke:#181818;stroke-width:1;"/><text fill="#000000" font-family="sans-serif" font-size="13" lengthAdjust="spacing" textLength="53.8726" x="702.61" y="665.0669">includes</text></g><!--link sendAlert to verifyAlert--><g class="link" data-entity-1="sendAlert" data-entity-2="verifyAlert" data-source-line="71" data-uid="lnk46" id="link_sendAlert_verifyAlert"><path d="M302.99,1225.71 C352.62,1223.73 419.0748,1221.089 476.2748,1218.809" fill="none" id="sendAlert-to-verifyAlert" style="stroke:#181818;stroke-width:1;stroke-dasharray:7.0,7.0;"/><polygon fill="#181818" points="482.27,1218.57,473.1178,1214.9316,477.274,1218.7691,473.4365,1222.9253,482.27,1218.57" style="stroke:#181818;stroke-width:1;"/><text fill="#000000" font-family="sans-serif" font-size="13" lengthAdjust="spacing" textLength="53.8726" x="388.57" y="1216.0669">includes</text></g><!--link login to verifyLogin--><g class="link" data-entity-1="login" data-entity-2="verifyLogin" data-source-line="82" data-uid="lnk52" id="link_login_verifyLogin"><path d="M274.63,1333.36 C323.01,1333.95 415.2904,1335.0866 485.6204,1335.9466" fill="none" id="login-to-verifyLogin" style="stroke:#181818;stroke-width:1;stroke-dasharray:7.0,7.0;"/><polygon fill="#181818" points="491.62,1336.02,482.6696,1331.9103,486.6204,1335.9589,482.5718,1339.9097,491.62,1336.02" style="stroke:#181818;stroke-width:1;"/><text fill="#000000" font-family="sans-serif" font-size="13" lengthAdjust="spacing" textLength="69.7798" x="380.57" y="1331.0669">&#171;includes&#187;</text></g><!--link register to verify_identity--><g class="link" data-entity-1="register" data-entity-2="verify_identity" data-source-line="83" data-uid="lnk53" id="link_register_verify_identity"><path d="M317.43,1402.21 C367.87,1403.75 429.4128,1405.6361 482.2428,1407.2561" fill="none" id="register-to-verify_identity" style="stroke:#181818;stroke-width:1;stroke-dasharray:7.0,7.0;"/><polygon fill="#181818" points="488.24,1407.44,479.3668,1403.166,483.2423,1407.2868,479.1216,1411.1623,488.24,1407.44" style="stroke:#181818;stroke-width:1;"/><text fill="#000000" font-family="sans-serif" font-size="13" lengthAdjust="spacing" textLength="69.7798" x="380.57" y="1401.0669">&#171;includes&#187;</text></g><!--link t to sell--><g class="link" data-entity-1="t" data-entity-2="sell" data-source-line="95" data-uid="lnk59" id="link_t_sell"><path d="M31.61,684.67 C36.73,565.66 55.03,208.37 91.14,172 C201.18,61.17 403.74,75.13 507.3,91.32" fill="none" id="t-sell" style="stroke:#181818;stroke-width:1;"/></g><!--link t to buy--><g class="link" data-entity-1="t" data-entity-2="buy" data-source-line="96" data-uid="lnk60" id="link_t_buy"><path d="M40.03,684.51 C48.95,657.94 64.8,624.08 91.14,605 C210.81,518.29 391.15,513.62 493.57,519.38" fill="none" id="t-buy" style="stroke:#181818;stroke-width:1;"/></g><!--link t to chart_visual--><g class="link" data-entity-1="t" data-entity-2="chart_visual" data-source-line="97" data-uid="lnk61" id="link_t_chart_visual"><path d="M31.79,684.4 C36.11,605.89 50.19,431.59 91.14,391 C202.64,280.5 404.55,285.94 507.63,297.38" fill="none" id="t-chart_visual" style="stroke:#181818;stroke-width:1;"/></g><!--link t to search--><g class="link" data-entity-1="t" data-entity-2="search" data-source-line="98" data-uid="lnk62" id="link_t_search"><path d="M30.3,684.61 C31.67,593.58 40.25,368.42 91.14,317 C206.71,200.26 423.73,215.77 521.7,230.05" fill="none" id="t-search" style="stroke:#181818;stroke-width:1;"/></g><!--link t to CancelOrder--><g class="link" data-entity-1="t" data-entity-2="CancelOrder" data-source-line="99" data-uid="lnk63" id="link_t_CancelOrder"><path d="M32.32,684.41 C38.99,576.1 60.16,275.11 91.14,244 C207.06,127.59 424.87,147.79 522.47,164.11" fill="none" id="t-CancelOrder" style="stroke:#181818;stroke-width:1;"/></g><!--link t to hist_trade--><g class="link" data-entity-1="t" data-entity-2="hist_trade" data-source-line="100" data-uid="lnk64" id="link_t_hist_trade"><path d="M34.06,684.36 C41.52,619.96 59.74,494.77 91.14,465 C203.65,358.35 400.56,359.63 504.03,369.1" fill="none" id="t-hist_trade" style="stroke:#181818;stroke-width:1;"/></g><!--link t to clientSupport--><g class="link" data-entity-1="t" data-entity-2="clientSupport" data-source-line="101" data-uid="lnk65" id="link_t_clientSupport"><path d="M31.53,684.67 C35.33,642.01 48.26,574.18 91.14,537 C203.07,439.96 386.23,435.8 491.23,442.93" fill="none" id="t-clientSupport" style="stroke:#181818;stroke-width:1;"/></g><!--link t to withdraw--><g class="link" data-entity-1="t" data-entity-2="withdraw" data-source-line="103" data-uid="lnk66" id="link_t_withdraw"><path d="M44.01,761.49 C53.89,783.37 69.29,809.43 91.14,825 C120.94,846.24 161.84,853.96 193.73,856.52" fill="none" id="t-withdraw" style="stroke:#181818;stroke-width:1;"/></g><!--link t to deposit--><g class="link" data-entity-1="t" data-entity-2="deposit" data-source-line="104" data-uid="lnk67" id="link_t_deposit"><path d="M52.54,739.63 C63.66,747.15 77.58,755.56 91.14,761 C128.35,775.95 173.61,784.32 205.06,788.72" fill="none" id="t-deposit" style="stroke:#181818;stroke-width:1;"/></g><!--link t to transactionHistory--><g class="link" data-entity-1="t" data-entity-2="transactionHistory" data-source-line="105" data-uid="lnk68" id="link_t_transactionHistory"><path d="M52.4,706.9 C63.6,699.41 77.63,690.87 91.14,685 C114.86,674.7 141.81,666.41 166.37,660.06" fill="none" id="t-transactionHistory" style="stroke:#181818;stroke-width:1;"/></g><!--link t to balanceHistory--><g class="link" data-entity-1="t" data-entity-2="balanceHistory" data-source-line="106" data-uid="lnk69" id="link_t_balanceHistory"><path d="M52.49,723 C77.09,723 118.11,723 155.82,723" fill="none" id="t-balanceHistory" style="stroke:#181818;stroke-width:1;"/></g><!--link t to register--><g class="link" data-entity-1="t" data-entity-2="register" data-source-line="108" data-uid="lnk70" id="link_t_register"><path d="M31.15,761.34 C35.17,892.76 51.24,1319.49 91.14,1365 C110.9,1387.53 141.95,1397.13 170.88,1400.77" fill="none" id="t-register" style="stroke:#181818;stroke-width:1;"/></g><!--link t to login--><g class="link" data-entity-1="t" data-entity-2="login" data-source-line="109" data-uid="lnk71" id="link_t_login"><path d="M29.78,761.31 C29.64,870.21 34.4,1178.82 91.14,1259 C120.76,1300.85 180.72,1320.03 215.9,1328" fill="none" id="t-login" style="stroke:#181818;stroke-width:1;"/></g><!--link t to createAlert--><g class="link" data-entity-1="t" data-entity-2="createAlert" data-source-line="111" data-uid="lnk72" id="link_t_createAlert"><path d="M30.45,761.4 C32.16,852.49 41.43,1077.96 91.14,1131 C114.53,1155.96 151.97,1164.31 183.87,1166.37" fill="none" id="t-createAlert" style="stroke:#181818;stroke-width:1;"/></g><!--link t to modifyAlert--><g class="link" data-entity-1="t" data-entity-2="modifyAlert" data-source-line="112" data-uid="lnk73" id="link_t_modifyAlert"><path d="M35.82,761.31 C43.06,797.77 58.73,852.24 91.14,888 C120.55,920.44 167.29,940.19 201.22,951.03" fill="none" id="t-modifyAlert" style="stroke:#181818;stroke-width:1;"/></g><!--link t to notif_history--><g class="link" data-entity-1="t" data-entity-2="notif_history" data-source-line="113" data-uid="lnk74" id="link_t_notif_history"><path d="M31.94,761.43 C36.56,840.1 51.18,1015.65 91.14,1058 C109.43,1077.39 136.02,1087.35 161.88,1092.27" fill="none" id="t-notif_history" style="stroke:#181818;stroke-width:1;"/></g><!--link t to deleteAlert--><g class="link" data-entity-1="t" data-entity-2="deleteAlert" data-source-line="114" data-uid="lnk75" id="link_t_deleteAlert"><path d="M33.68,761.6 C40.72,828.49 58.55,961.88 91.14,994 C115.47,1017.98 152.92,1026.08 184.59,1028.13" fill="none" id="t-deleteAlert" style="stroke:#181818;stroke-width:1;"/></g><!--link a to user_block--><g class="link" data-entity-1="a" data-entity-2="user_block" data-source-line="116" data-uid="lnk76" id="link_a_user_block"><path d="M45.73,1608.36 C55.81,1588.28 70.84,1565.06 91.14,1551 C120,1531.01 158.8,1523.08 190.01,1520.1" fill="none" id="a-user_block" style="stroke:#181818;stroke-width:1;"/></g><!--link a to addCoin--><g class="link" data-entity-1="a" data-entity-2="addCoin" data-source-line="117" data-uid="lnk77" id="link_a_addCoin"><path d="M51.74,1633.78 C63.12,1627.32 77.51,1619.9 91.14,1615 C127.61,1601.9 171.02,1593.43 202.13,1588.52" fill="none" id="a-addCoin" style="stroke:#181818;stroke-width:1;"/></g><!--link a to deleteCoin--><g class="link" data-entity-1="a" data-entity-2="deleteCoin" data-source-line="118" data-uid="lnk78" id="link_a_deleteCoin"><path d="M51.7,1647 C82.94,1647 141.8,1647 186.09,1647" fill="none" id="a-deleteCoin" style="stroke:#181818;stroke-width:1;"/></g><!--link a to handleSupport--><g class="link" data-entity-1="a" data-entity-2="handleSupport" data-source-line="119" data-uid="lnk79" id="link_a_handleSupport"><path d="M51.82,1660.01 C63.22,1666.42 77.61,1673.85 91.14,1679 C117.62,1689.08 147.7,1697.24 174.09,1703.38" fill="none" id="a-handleSupport" style="stroke:#181818;stroke-width:1;"/></g><!--link a to verify_identity--><g class="link" data-entity-1="a" data-entity-2="verify_identity" data-source-line="121" data-uid="lnk80" id="link_a_verify_identity"><path d="M41.06,1685.6 C50.21,1709.89 65.89,1739.34 91.14,1754 C194.42,1813.97 255.57,1812.21 359.85,1754 C490.34,1681.16 550.52,1491.39 567.06,1429.69" fill="none" id="a-verify_identity" style="stroke:#181818;stroke-width:1;"/></g><!--link s to sendAlert--><g class="link" data-entity-1="s" data-entity-2="sendAlert" data-source-line="123" data-uid="lnk81" id="link_s_sendAlert"><path d="M870.57,1820.24 C779.95,1781.92 501.45,1651.1 379.57,1445 C346.91,1389.78 394.31,1356.12 359.85,1302 C340.84,1272.16 304.99,1251.93 278.45,1240.27" fill="none" id="s-sendAlert" style="stroke:#181818;stroke-width:1;"/></g><!--link verifyLogin to s--><g class="link" data-entity-1="verifyLogin" data-entity-2="s" data-source-line="124" data-uid="lnk82" id="link_verifyLogin_s"><path d="M640.47,1347.65 C657.68,1352.98 675.14,1360.99 688.61,1373 C695.14,1378.83 693,1383.03 696.61,1391 C764.09,1540.17 846.07,1716.88 881.69,1793.44" fill="none" id="verifyLogin-s" style="stroke:#181818;stroke-width:1;"/></g><!--link processOrder to s--><g class="link" data-entity-1="processOrder" data-entity-2="s" data-source-line="125" data-uid="lnk83" id="link_processOrder_s"><path d="M833.46,616.55 C795.54,620.87 751.39,633.59 729.11,667.5 C698.59,713.93 724.57,737.13 729.11,792.5 C761.45,1187.18 861.78,1657.76 891.97,1793.58" fill="none" id="processOrder-s" style="stroke:#181818;stroke-width:1;"/></g><!--link verifyAlert to s--><g class="link" data-entity-1="verifyAlert" data-entity-2="s" data-source-line="126" data-uid="lnk84" id="link_verifyAlert_s"><path d="M606.76,1234.64 C631.42,1250.57 664.89,1274.78 688.61,1302 C821,1453.97 876.26,1699.24 893.37,1793.45" fill="none" id="verifyAlert-s" style="stroke:#181818;stroke-width:1;"/></g><!--link fiatAuthConf to PaymentGateway--><g class="link" data-entity-1="fiatAuthConf" data-entity-2="PaymentGateway" data-source-line="128" data-uid="lnk85" id="link_fiatAuthConf_PaymentGateway"><path d="M995.55,683.65 C1030.69,681.65 1069.74,679.42 1101.47,677.61" fill="none" id="fiatAuthConf-PaymentGateway" style="stroke:#181818;stroke-width:1;"/></g><!--link miningTransaction to blockchainNetwork--><g class="link" data-entity-1="miningTransaction" data-entity-2="blockchainNetwork" data-source-line="129" data-uid="lnk86" id="link_miningTransaction_blockchainNetwork"><path d="M1004.91,775.89 C1034.87,777.59 1066.88,779.42 1094.33,780.98" fill="none" id="miningTransaction-blockchainNetwork" style="stroke:#181818;stroke-width:1;"/></g><!--SRC=[XLRRRXiX47tdAr3Uam-88akEgxILshJgBO_M1B2DiWONsBXMcdylpB2xuDrjzc45XpCmp9L6RG8FbZkztGKkjLCYQ6iOOo22TVpYXmEft0K7pqE7BULU6uIWW_p91xLN2FeE_AQyWlOFlssiU5hj80izfgb8qtiLZjOzTVolSDeh4_Xx2Ee89oHdB4DHBvPK1BDjL1He86oisoik5K-QQhEzu2-Cnmz_1n1FiCKrum6lvcavVQrN0dpQnrcXlEShTpf4OnHir27UDcvSeBp_vlUwqn16EsqYk6p3RcNDPbxqY-jCVY04WT6HE7WzlsUomGkRrsy5HgYcE8C0d8_PqO5ExBYmsdXoBW9ZOlId2_nP-nOQxQ6xCC9hWiT2preTUKWHndVQnnWWdwVn6k6nY5E_M-K35urEeUBRmy6wG6SXz9sGiUHZU-A27BngdLD6q6a9vrCtRvek82e-BWm6Pg-CfIskhXQrkwxvpOqseccbMYmuGx6tI9KpxreZ_MSmi4qPy8A7ZTHyfmxMQpA0fF74PVAzvPXCDnnBf4YTugUm7hCVTDX91qTa7lDaNez9UhRrZ2gJ8fXZR2xInKw9fohrgoWBmy87WkUsU82cKO7VGfDIXOA6nbdmBDdwVNfBtFozlAoqVeDovfNEiSYPTjmKfJg8TNh5U3qpUOhAYHftpNDaUbQTESClw9L_4hkiUrCRlqraHMBSsw0tMW3vz6KYAvwLqviJXqR5eYIiaPguw3jQNAQrgRGtCilndEv6pd0fEf1SXvP92gvtir7bL6nd77UboeN0p2bxA_kxK3j20DaJKIzLZ5LLq0ceDn-gLp_ixyclf3sQw8l2JkUUI45Kbggb4BOrOIXMRAfoRwD1Oiq38gDoFJZcVxBR_61eqcWgmxERaHdl6K0tld0nuRETy1T9__JAUQvbL5k7Ko6-xh3IJgJBLMyUEgCeutwnwCdzxGR-i6ajqvzHDtH8JwsuXyDW_rzVnrTLcb9NJuCrOcCgI8aTdPvmKgxYU3QGUYBDfxaVmCZu8Ckzbt_qFZPfwkMuqYtq5OW57kiKjL8SfXPAe-h9a6duvi1n-Lf1e7Wia7Zr2Y2igqSqwziapYRQ02bKL_YyK-THcc4mv9KoXn4eqfI0kYfaLORSP92Gmcyuxzm30tsOdncNmBCuOyoJ3RioLiPjMc3bWmI18l5npggg7A6pH_ce5oJpZHxvh_y0]--></g></svg>