<svg xmlns="http://www.w3.org/2000/svg" xmlns:xlink="http://www.w3.org/1999/xlink" contentStyleType="text/css" data-diagram-type="DESCRIPTION" height="1820px" preserveAspectRatio="none" style="width:1545px;height:1820px;background:#FFFFFF;" version="1.1" viewBox="0 0 1545 1820" width="1545px" zoomAndPan="magnify"><defs/><g><!--cluster Platforme de Trading--><g id="cluster_Platforme de Trading"><rect fill="transparent" height="1715" rx="2.5" ry="2.5" style="stroke:#181818;stroke-width:1;" width="1250" x="99" y="8.37"/><text fill="#000000" font-family="sans-serif" font-size="14" font-weight="bold" lengthAdjust="spacing" textLength="167.8701" x="640.0649" y="23.3651">Platforme de Trading</text></g><!--cluster Transaction fiat and crypto--><g id="cluster_Transaction fiat and crypto"><path d="M985.5,662.37 L1201.2715,662.37 A3.75,3.75 0 0 1 1203.7715,664.87 L1210.7715,684.6669 L1322.5,684.6669 A2.5,2.5 0 0 1 1325,687.1669 L1325,867.87 A2.5,2.5 0 0 1 1322.5,870.37 L985.5,870.37 A2.5,2.5 0 0 1 983,867.87 L983,664.87 A2.5,2.5 0 0 1 985.5,662.37 " fill="transparent" style="stroke:#000000;stroke-width:1.5;"/><line style="stroke:#000000;stroke-width:1.5;" x1="983" x2="1210.7715" y1="684.6669" y2="684.6669"/><text fill="#000000" font-family="sans-serif" font-size="14" font-weight="bold" lengthAdjust="spacing" textLength="214.7715" x="987" y="677.3651">Transaction fiat and crypto</text></g><!--cluster Funds Managment--><g id="cluster_Funds Managment"><path d="M160,611.37 L307.2822,611.37 A3.75,3.75 0 0 1 309.7822,613.87 L316.7822,633.6669 L891.5,633.6669 A2.5,2.5 0 0 1 894,636.1669 L894,900.87 A2.5,2.5 0 0 1 891.5,903.37 L160,903.37 A2.5,2.5 0 0 1 157.5,900.87 L157.5,613.87 A2.5,2.5 0 0 1 160,611.37 " fill="transparent" style="stroke:#000000;stroke-width:1.5;"/><line style="stroke:#000000;stroke-width:1.5;" x1="157.5" x2="316.7822" y1="633.6669" y2="633.6669"/><text fill="#000000" font-family="sans-serif" font-size="14" font-weight="bold" lengthAdjust="spacing" textLength="146.2822" x="161.5" y="626.3651">Funds Managment</text></g><!--cluster Trading--><g id="cluster_Trading"><path d="M139,927.37 L200.71,927.37 A3.75,3.75 0 0 1 203.21,929.87 L210.21,949.6669 L606,949.6669 A2.5,2.5 0 0 1 608.5,952.1669 L608.5,1366.87 A2.5,2.5 0 0 1 606,1369.37 L139,1369.37 A2.5,2.5 0 0 1 136.5,1366.87 L136.5,929.87 A2.5,2.5 0 0 1 139,927.37 " fill="transparent" style="stroke:#000000;stroke-width:1.5;"/><line style="stroke:#000000;stroke-width:1.5;" x1="136.5" x2="210.21" y1="949.6669" y2="949.6669"/><text fill="#000000" font-family="sans-serif" font-size="14" font-weight="bold" lengthAdjust="spacing" textLength="60.71" x="140.5" y="942.3651">Trading</text></g><!--cluster Notifications & Alerts --><g id="cluster_Notifications &amp; Alerts "><path d="M137.5,1393.37 L313.2607,1393.37 A3.75,3.75 0 0 1 315.7607,1395.87 L322.7607,1415.6669 L643,1415.6669 A2.5,2.5 0 0 1 645.5,1418.1669 L645.5,1696.87 A2.5,2.5 0 0 1 643,1699.37 L137.5,1699.37 A2.5,2.5 0 0 1 135,1696.87 L135,1395.87 A2.5,2.5 0 0 1 137.5,1393.37 " fill="transparent" style="stroke:#000000;stroke-width:1.5;"/><line style="stroke:#000000;stroke-width:1.5;" x1="135" x2="322.7607" y1="1415.6669" y2="1415.6669"/><text fill="#000000" font-family="sans-serif" font-size="14" font-weight="bold" lengthAdjust="spacing" textLength="169.8867" x="139" y="1408.3651">Notifications &amp; Alerts</text></g><!--cluster Account Managment--><g id="cluster_Account Managment"><path d="M125.5,352.37 L288.6074,352.37 A3.75,3.75 0 0 1 291.1074,354.87 L298.1074,374.6669 L666.5,374.6669 A2.5,2.5 0 0 1 669,377.1669 L669,584.87 A2.5,2.5 0 0 1 666.5,587.37 L125.5,587.37 A2.5,2.5 0 0 1 123,584.87 L123,354.87 A2.5,2.5 0 0 1 125.5,352.37 " fill="transparent" style="stroke:#000000;stroke-width:1.5;"/><line style="stroke:#000000;stroke-width:1.5;" x1="123" x2="298.1074" y1="374.6669" y2="374.6669"/><text fill="#000000" font-family="sans-serif" font-size="14" font-weight="bold" lengthAdjust="spacing" textLength="162.1074" x="127" y="367.3651">Account Managment</text></g><!--cluster Administraion--><g id="cluster_Administraion"><path d="M137.5,51.37 L249.2695,51.37 A3.75,3.75 0 0 1 251.7695,53.87 L258.7695,73.6669 L640.5,73.6669 A2.5,2.5 0 0 1 643,76.1669 L643,325.87 A2.5,2.5 0 0 1 640.5,328.37 L137.5,328.37 A2.5,2.5 0 0 1 135,325.87 L135,53.87 A2.5,2.5 0 0 1 137.5,51.37 " fill="transparent" style="stroke:#000000;stroke-width:1.5;"/><line style="stroke:#000000;stroke-width:1.5;" x1="135" x2="258.7695" y1="73.6669" y2="73.6669"/><text fill="#000000" font-family="sans-serif" font-size="14" font-weight="bold" lengthAdjust="spacing" textLength="110.7695" x="139" y="66.3651">Administraion</text></g><g id="elem_miningTransaction"><ellipse cx="1154.1181" cy="820.2936" fill="#F1F1F1" rx="155.1181" ry="33.4236" style="stroke:#181818;stroke-width:0.5;"/><text fill="#000000" font-family="sans-serif" font-size="14" lengthAdjust="spacing" textLength="281.1211" x="1013.5576" y="823.1403">mining and validation of the transaction</text></g><g id="elem_fiatAuthConf"><ellipse cx="1153.7889" cy="724.3278" fill="#F1F1F1" rx="122.7889" ry="26.9578" style="stroke:#181818;stroke-width:0.5;"/><text fill="#000000" font-family="sans-serif" font-size="14" lengthAdjust="spacing" textLength="213.2949" x="1047.1414" y="727.1745">Authaurization &amp; Confirmation</text></g><g id="elem_manage_wallet"><ellipse cx="247.8605" cy="805.1421" fill="#F1F1F1" rx="74.3605" ry="17.2721" style="stroke:#181818;stroke-width:0.5;"/><text fill="#000000" font-family="sans-serif" font-size="14" lengthAdjust="spacing" textLength="104.3643" x="192.6784" y="808.8897">Manage Wallet</text></g><g id="elem_deposit"><ellipse cx="562.5021" cy="870.5612" fill="#F1F1F1" rx="50.0021" ry="14.6912" style="stroke:#181818;stroke-width:0.5;"/><text fill="#000000" font-family="sans-serif" font-size="14" lengthAdjust="spacing" textLength="53.5186" x="532.7428" y="874.3087">Deposit</text></g><g id="elem_depositCrypto"><ellipse cx="798.9743" cy="870.3649" fill="#F1F1F1" rx="72.9743" ry="16.9949" style="stroke:#181818;stroke-width:0.5;"/><text fill="#000000" font-family="sans-serif" font-size="14" lengthAdjust="spacing" textLength="100.7549" x="745.5969" y="874.1124">crypto deposit</text></g><g id="elem_depositFiat"><ellipse cx="799.0636" cy="802.2827" fill="#F1F1F1" rx="65.0636" ry="15.4127" style="stroke:#181818;stroke-width:0.5;"/><text fill="#000000" font-family="sans-serif" font-size="14" lengthAdjust="spacing" textLength="78.9619" x="756.5826" y="806.0303">fiat deposit</text></g><g id="elem_withdraw"><ellipse cx="562.3921" cy="805.141" fill="#F1F1F1" rx="59.8921" ry="14.771" style="stroke:#181818;stroke-width:0.5;"/><text fill="#000000" font-family="sans-serif" font-size="14" lengthAdjust="spacing" textLength="66.7666" x="526.0088" y="808.8886">Withdraw</text></g><g id="elem_withdrawCrypto"><ellipse cx="798.9231" cy="733.5546" fill="#F1F1F1" rx="78.9231" ry="18.1846" style="stroke:#181818;stroke-width:0.5;"/><text fill="#000000" font-family="sans-serif" font-size="14" lengthAdjust="spacing" textLength="115.8965" x="738.893" y="737.0548">crypto Withdraw</text></g><g id="elem_withdrawFiat"><ellipse cx="798.9717" cy="663.3643" fill="#F1F1F1" rx="70.4717" ry="16.4943" style="stroke:#181818;stroke-width:0.5;"/><text fill="#000000" font-family="sans-serif" font-size="14" lengthAdjust="spacing" textLength="94.1035" x="748.92" y="667.1119">fiat Withdraw</text></g><g id="elem_wallet_history"><ellipse cx="562.7107" cy="735.6121" fill="#F1F1F1" rx="89.2107" ry="20.2421" style="stroke:#181818;stroke-width:0.5;"/><text fill="#000000" font-family="sans-serif" font-size="14" lengthAdjust="spacing" textLength="139.9521" x="492.7347" y="738.4588">check wallet history</text></g><g id="elem_check_balance"><ellipse cx="562.6727" cy="663.4045" fill="#F1F1F1" rx="73.1727" ry="17.0345" style="stroke:#181818;stroke-width:0.5;"/><text fill="#000000" font-family="sans-serif" font-size="14" lengthAdjust="spacing" textLength="101.2744" x="509.0355" y="667.1521">check Balance</text></g><g id="elem_openOrder"><ellipse cx="248.0691" cy="1269.4838" fill="#F1F1F1" rx="66.0691" ry="15.6138" style="stroke:#181818;stroke-width:0.5;"/><text fill="#000000" font-family="sans-serif" font-size="14" lengthAdjust="spacing" textLength="81.874" x="204.1321" y="1273.2314">Open Order</text></g><g id="elem_buy"><ellipse cx="562.4018" cy="1294.3936" fill="#F1F1F1" rx="29.9018" ry="14.5236" style="stroke:#181818;stroke-width:0.5;"/><text fill="#000000" font-family="sans-serif" font-size="14" lengthAdjust="spacing" textLength="26.0449" x="549.3794" y="1297.2403">buy</text></g><g id="elem_sell"><ellipse cx="562.7342" cy="1230.3936" fill="#F1F1F1" rx="28.2342" ry="14.5236" style="stroke:#181818;stroke-width:0.5;"/><text fill="#000000" font-family="sans-serif" font-size="14" lengthAdjust="spacing" textLength="23.6865" x="550.8909" y="1233.2403">sell</text></g><g id="elem_CancelOrder"><ellipse cx="248.1619" cy="1336.2024" fill="#F1F1F1" rx="69.6619" ry="16.3324" style="stroke:#181818;stroke-width:0.5;"/><text fill="#000000" font-family="sans-serif" font-size="14" lengthAdjust="spacing" textLength="91.9092" x="199.2073" y="1339.9499">Cancel Order</text></g><g id="elem_search"><ellipse cx="248.0896" cy="978.3879" fill="#F1F1F1" rx="68.0896" ry="16.0179" style="stroke:#181818;stroke-width:0.5;"/><text fill="#000000" font-family="sans-serif" font-size="14" lengthAdjust="spacing" textLength="87.582" x="201.2986" y="982.1355">search coins</text></g><g id="elem_chart_visual"><ellipse cx="247.7589" cy="1048.1218" fill="#F1F1F1" rx="81.7589" ry="18.7518" style="stroke:#181818;stroke-width:0.5;"/><text fill="#000000" font-family="sans-serif" font-size="14" lengthAdjust="spacing" textLength="122.7461" x="185.3628" y="1051.3068">chart visualisaion</text></g><g id="elem_hist_trade"><ellipse cx="247.9008" cy="1121.4502" fill="#F1F1F1" rx="83.4008" ry="19.0802" style="stroke:#181818;stroke-width:0.5;"/><text fill="#000000" font-family="sans-serif" font-size="14" lengthAdjust="spacing" textLength="126.6152" x="184.135" y="1124.4527">view trade history</text></g><g id="elem_clientSupport"><ellipse cx="248.2428" cy="1197.4186" fill="#F1F1F1" rx="95.7428" ry="21.5486" style="stroke:#181818;stroke-width:0.5;"/><text fill="#000000" font-family="sans-serif" font-size="14" lengthAdjust="spacing" textLength="154.6289" x="170.9283" y="1200.2652">request client support</text></g><g id="elem_createAlert"><ellipse cx="247.7958" cy="1523.5292" fill="#F1F1F1" rx="66.2958" ry="15.6592" style="stroke:#181818;stroke-width:0.5;"/><text fill="#000000" font-family="sans-serif" font-size="14" lengthAdjust="spacing" textLength="82.5234" x="203.534" y="1527.2767">create Alert</text></g><g id="elem_manage_alerts"><ellipse cx="248.1596" cy="1591.4019" fill="#F1F1F1" rx="73.1596" ry="17.0319" style="stroke:#181818;stroke-width:0.5;"/><text fill="#000000" font-family="sans-serif" font-size="14" lengthAdjust="spacing" textLength="101.2402" x="194.5395" y="1595.1495">manage alerts</text></g><g id="elem_modifyAlert"><ellipse cx="562.6574" cy="1622.2015" fill="#F1F1F1" rx="67.1574" ry="15.8315" style="stroke:#181818;stroke-width:0.5;"/><text fill="#000000" font-family="sans-serif" font-size="14" lengthAdjust="spacing" textLength="84.9707" x="517.172" y="1625.949">modify alert</text></g><g id="elem_deleteAlert"><ellipse cx="562.7249" cy="1555.415" fill="#F1F1F1" rx="65.7249" ry="15.545" style="stroke:#181818;stroke-width:0.5;"/><text fill="#000000" font-family="sans-serif" font-size="14" lengthAdjust="spacing" textLength="80.8828" x="519.2835" y="1559.1625">delete alert</text></g><g id="elem_verifyAlert"><ellipse cx="248.016" cy="1450.1732" fill="#F1F1F1" rx="97.016" ry="21.8032" style="stroke:#181818;stroke-width:0.5;"/><text fill="#000000" font-family="sans-serif" font-size="14" lengthAdjust="spacing" textLength="153.0088" x="169.2865" y="1453.0199">verify alert conditions</text></g><g id="elem_sendAlert"><ellipse cx="562.6947" cy="1467.3089" fill="#F1F1F1" rx="65.1947" ry="15.4389" style="stroke:#181818;stroke-width:0.5;"/><text fill="#000000" font-family="sans-serif" font-size="14" lengthAdjust="spacing" textLength="70.4443" x="520.0224" y="1471.0565">send alert</text></g><g id="elem_notif_history"><ellipse cx="248.2034" cy="1663.4107" fill="#F1F1F1" rx="88.2034" ry="20.0407" style="stroke:#181818;stroke-width:0.5;"/><text fill="#000000" font-family="sans-serif" font-size="14" lengthAdjust="spacing" textLength="137.6621" x="179.3723" y="1666.2574">check alerts history</text></g><g id="elem_register"><ellipse cx="247.8659" cy="405.4432" fill="#F1F1F1" rx="78.3659" ry="18.0732" style="stroke:#181818;stroke-width:0.5;"/><text fill="#000000" font-family="sans-serif" font-size="14" lengthAdjust="spacing" textLength="114.5225" x="188.3008" y="409.0053">register account</text></g><g id="elem_login"><ellipse cx="247.9641" cy="473.4257" fill="#F1F1F1" rx="38.4641" ry="14.5557" style="stroke:#181818;stroke-width:0.5;"/><text fill="#000000" font-family="sans-serif" font-size="14" lengthAdjust="spacing" textLength="38.0146" x="227.09" y="476.8806">Login</text></g><g id="elem_changePassword"><ellipse cx="248.0888" cy="547.5878" fill="#F1F1F1" rx="109.0888" ry="24.2178" style="stroke:#181818;stroke-width:0.5;"/><text fill="#000000" font-family="sans-serif" font-size="14" lengthAdjust="spacing" textLength="183.9072" x="156.1352" y="550.4344">change Accoutn password</text></g><g id="elem_verify_identity"><ellipse cx="562.3666" cy="408.3433" fill="#F1F1F1" rx="90.3666" ry="20.4733" style="stroke:#181818;stroke-width:0.5;"/><text fill="#000000" font-family="sans-serif" font-size="14" lengthAdjust="spacing" textLength="142.5703" x="491.0814" y="411.19">Verify Users identity</text></g><g id="elem_manageUsers"><ellipse cx="247.9076" cy="182.2515" fill="#F1F1F1" rx="72.4076" ry="16.8815" style="stroke:#181818;stroke-width:0.5;"/><text fill="#000000" font-family="sans-serif" font-size="14" lengthAdjust="spacing" textLength="99.2646" x="195.2753" y="185.9991">Manage Users</text></g><g id="elem_user_verif"><ellipse cx="562.6396" cy="166.4979" fill="#F1F1F1" rx="63.6396" ry="15.1279" style="stroke:#181818;stroke-width:0.5;"/><text fill="#000000" font-family="sans-serif" font-size="14" lengthAdjust="spacing" textLength="74.7441" x="522.2675" y="170.2455">verify user</text></g><g id="elem_user_block"><ellipse cx="562.2782" cy="101.3256" fill="#F1F1F1" rx="62.7782" ry="14.9556" style="stroke:#181818;stroke-width:0.5;"/><text fill="#000000" font-family="sans-serif" font-size="14" lengthAdjust="spacing" textLength="72.1328" x="523.2118" y="105.0732">block user</text></g><g id="elem_manage_coins"><ellipse cx="248.0709" cy="256.3842" fill="#F1F1F1" rx="95.5709" ry="21.5142" style="stroke:#181818;stroke-width:0.5;"/><text fill="#000000" font-family="sans-serif" font-size="14" lengthAdjust="spacing" textLength="154.2461" x="170.9478" y="259.2309">Manage coins Listings</text></g><g id="elem_addCoin"><ellipse cx="562.7119" cy="297.6028" fill="#F1F1F1" rx="54.7119" ry="14.7328" style="stroke:#181818;stroke-width:0.5;"/><text fill="#000000" font-family="sans-serif" font-size="14" lengthAdjust="spacing" textLength="59.8281" x="529.7979" y="301.3503">add coin</text></g><g id="elem_deleteCoin"><ellipse cx="562.593" cy="232.1886" fill="#F1F1F1" rx="64.593" ry="15.3186" style="stroke:#181818;stroke-width:0.5;"/><text fill="#000000" font-family="sans-serif" font-size="14" lengthAdjust="spacing" textLength="77.5811" x="520.8025" y="235.9362">delete coin</text></g><g id="elem_handleSupport"><ellipse cx="247.859" cy="108.1418" fill="#F1F1F1" rx="96.859" ry="21.7718" style="stroke:#181818;stroke-width:0.5;"/><text fill="#000000" font-family="sans-serif" font-size="14" lengthAdjust="spacing" textLength="157.1104" x="169.3038" y="110.9885">Handle Support Issues</text></g><!--entity blockchainNetwork--><g id="elem_blockchainNetwork"><ellipse cx="1467.145" cy="797.87" fill="#F1F1F1" rx="8" ry="8" style="stroke:#181818;stroke-width:0.5;"/><path d="M1467.145,805.87 L1467.145,832.87 M1454.145,813.87 L1480.145,813.87 M1467.145,832.87 L1454.145,847.87 M1467.145,832.87 L1480.145,847.87 " fill="transparent" style="stroke:#181818;stroke-width:0.5;"/><text fill="#000000" font-family="sans-serif" font-size="14" lengthAdjust="spacing" textLength="142.29" x="1396" y="862.3651">Reseaux BlockChain</text></g><!--entity PaymentGateway--><g id="elem_PaymentGateway"><ellipse cx="1467.1074" cy="686.87" fill="#F1F1F1" rx="8" ry="8" style="stroke:#181818;stroke-width:0.5;"/><path d="M1467.1074,694.87 L1467.1074,721.87 M1454.1074,702.87 L1480.1074,702.87 M1467.1074,721.87 L1454.1074,736.87 M1467.1074,721.87 L1480.1074,736.87 " fill="transparent" style="stroke:#181818;stroke-width:0.5;"/><text fill="#000000" font-family="sans-serif" font-size="14" lengthAdjust="spacing" textLength="128.2148" x="1403" y="751.3651">Payment Gateway</text></g><!--entity t--><g id="elem_t"><ellipse cx="29.0713" cy="1091.87" fill="#F1F1F1" rx="8" ry="8" style="stroke:#181818;stroke-width:0.5;"/><path d="M29.0713,1099.87 L29.0713,1126.87 M16.0713,1107.87 L42.0713,1107.87 M29.0713,1126.87 L16.0713,1141.87 M29.0713,1126.87 L42.0713,1141.87 " fill="transparent" style="stroke:#181818;stroke-width:0.5;"/><text fill="#000000" font-family="sans-serif" font-size="14" lengthAdjust="spacing" textLength="46.1426" x="6" y="1156.3651">Trader</text></g><!--entity a--><g id="elem_a"><ellipse cx="28.9321" cy="115.87" fill="#F1F1F1" rx="8" ry="8" style="stroke:#181818;stroke-width:0.5;"/><path d="M28.9321,123.87 L28.9321,150.87 M15.9321,131.87 L41.9321,131.87 M28.9321,150.87 L15.9321,165.87 M28.9321,150.87 L41.9321,165.87 " fill="transparent" style="stroke:#181818;stroke-width:0.5;"/><text fill="#000000" font-family="sans-serif" font-size="14" lengthAdjust="spacing" textLength="44.8643" x="6.5" y="180.3651">Admin</text></g><!--entity alertSystem--><g id="elem_alertSystem"><ellipse cx="798.9746" cy="1747.87" fill="#F1F1F1" rx="8" ry="8" style="stroke:#181818;stroke-width:0.5;"/><path d="M798.9746,1755.87 L798.9746,1782.87 M785.9746,1763.87 L811.9746,1763.87 M798.9746,1782.87 L785.9746,1797.87 M798.9746,1782.87 L811.9746,1797.87 " fill="transparent" style="stroke:#181818;stroke-width:0.5;"/><text fill="#000000" font-family="sans-serif" font-size="14" lengthAdjust="spacing" textLength="165.9492" x="716" y="1812.3651">Systeme de notification</text></g><!--reverse link manage_wallet to check_balance--><g id="link_manage_wallet_check_balance"><path d="M295.6439,781.2507 C338.2539,759.3807 402.08,727.51 472,697.37 C488.18,690.39 506.3,683.37 521.99,677.53 " fill="transparent" id="manage_wallet-backto-check_balance" style="stroke:#181818;stroke-width:1;"/><polygon fill="transparent" points="279.63,789.47,298.3836,786.5887,292.9041,775.9128,279.63,789.47" style="stroke:#181818;stroke-width:1;"/></g><!--reverse link manage_wallet to wallet_history--><g id="link_manage_wallet_wallet_history"><path d="M320.2845,789.4045 C374.7345,777.2045 441.35,762.28 498.81,749.41 " fill="transparent" id="manage_wallet-backto-wallet_history" style="stroke:#181818;stroke-width:1;"/><polygon fill="transparent" points="302.72,793.34,321.5963,795.2594,318.9727,783.5497,302.72,793.34" style="stroke:#181818;stroke-width:1;"/></g><!--reverse link manage_wallet to withdraw--><g id="link_manage_wallet_withdraw"><path d="M340.66,805.37 C395.52,805.37 451.43,805.37 502.43,805.37 " fill="transparent" id="manage_wallet-backto-withdraw" style="stroke:#181818;stroke-width:1;"/><polygon fill="transparent" points="322.66,805.37,340.66,811.37,340.66,799.37,322.66,805.37" style="stroke:#181818;stroke-width:1;"/></g><!--reverse link manage_wallet to deposit--><g id="link_manage_wallet_deposit"><path d="M322.1328,820.5855 C384.3928,833.5355 466.24,850.56 521.39,862.03 " fill="transparent" id="manage_wallet-backto-deposit" style="stroke:#181818;stroke-width:1;"/><polygon fill="transparent" points="304.51,816.92,320.911,826.4598,323.3547,814.7113,304.51,816.92" style="stroke:#181818;stroke-width:1;"/></g><!--reverse link withdraw to withdrawFiat--><g id="link_withdraw_withdrawFiat"><path d="M634.397,795.0311 C654.967,790.3811 660.03,786.3 677,772.37 C684.26,766.41 709.08,703.72 716,697.37 C726.22,688 739.39,681.01 752.17,675.89 " fill="transparent" id="withdraw-backto-withdrawFiat" style="stroke:#181818;stroke-width:1;"/><polygon fill="transparent" points="616.84,799,635.72,800.8834,633.074,789.1788,616.84,799" style="stroke:#181818;stroke-width:1;"/></g><!--reverse link withdraw to withdrawCrypto--><g id="link_withdraw_withdrawCrypto"><path d="M620.2844,789.2346 C642.1444,782.9746 652.47,779.89 677,772.37 C702.32,764.61 730.49,755.56 753.28,748.13 " fill="transparent" id="withdraw-backto-withdrawCrypto" style="stroke:#181818;stroke-width:1;"/><polygon fill="transparent" points="602.98,794.19,621.9363,795.0027,618.6326,783.4664,602.98,794.19" style="stroke:#181818;stroke-width:1;"/></g><!--reverse link deposit to depositCrypto--><g id="link_deposit_depositCrypto"><path d="M630.66,870.37 C663.43,870.37 689.06,870.37 725.75,870.37 " fill="transparent" id="deposit-backto-depositCrypto" style="stroke:#181818;stroke-width:1;"/><polygon fill="transparent" points="612.66,870.37,630.66,876.37,630.66,864.37,612.66,870.37" style="stroke:#181818;stroke-width:1;"/></g><!--reverse link deposit to depositFiat--><g id="link_deposit_depositFiat"><path d="M615.6382,855.2482 C657.9982,842.9682 712.08,827.28 757.03,814.25 " fill="transparent" id="deposit-backto-depositFiat" style="stroke:#181818;stroke-width:1;"/><polygon fill="transparent" points="598.35,860.26,617.3088,861.011,613.9676,849.4855,598.35,860.26" style="stroke:#181818;stroke-width:1;"/></g><!--link withdrawCrypto to miningTransaction--><g id="link_withdrawCrypto_miningTransaction"><path d="M853.23,746.49 C905.43,759.35 980.5242,777.8647 1045.1442,793.7847 " fill="transparent" id="withdrawCrypto-to-miningTransaction" style="stroke:#181818;stroke-width:1;stroke-dasharray:7.0,7.0;"/><polygon fill="#181818" points="1050.97,795.22,1043.1881,789.1832,1046.1152,794.0239,1041.2744,796.951,1050.97,795.22" style="stroke:#181818;stroke-width:1;"/><text fill="#000000" font-family="sans-serif" font-size="13" lengthAdjust="spacing" textLength="53.8726" x="913" y="758.4369">includes</text></g><!--link depositCrypto to miningTransaction--><g id="link_depositCrypto_miningTransaction"><path d="M871.33,867.89 C901.01,866.28 935.77,863.65 967,859.37 C993.48,855.74 1015.9445,851.7161 1042.3245,846.2561 " fill="transparent" id="depositCrypto-to-miningTransaction" style="stroke:#181818;stroke-width:1;stroke-dasharray:7.0,7.0;"/><polygon fill="#181818" points="1048.2,845.04,1038.5761,842.9471,1043.3038,846.0534,1040.1975,850.7811,1048.2,845.04" style="stroke:#181818;stroke-width:1;"/><text fill="#000000" font-family="sans-serif" font-size="13" lengthAdjust="spacing" textLength="53.8726" x="913" y="855.4369">includes</text></g><!--link withdrawFiat to fiatAuthConf--><g id="link_withdrawFiat_fiatAuthConf"><path d="M856.32,673.1 C910.24,682.42 986.7476,695.6383 1051.0376,706.7483 " fill="transparent" id="withdrawFiat-to-fiatAuthConf" style="stroke:#181818;stroke-width:1;stroke-dasharray:7.0,7.0;"/><polygon fill="#181818" points="1056.95,707.77,1048.7626,702.2958,1052.023,706.9186,1047.4003,710.179,1056.95,707.77" style="stroke:#181818;stroke-width:1;"/><text fill="#000000" font-family="sans-serif" font-size="13" lengthAdjust="spacing" textLength="53.8726" x="913" y="679.4369">includes</text></g><!--link depositFiat to fiatAuthConf--><g id="link_depositFiat_fiatAuthConf"><path d="M843.76,813.71 C880.49,820.47 932.37,823.21 967,796.37 C976.89,788.7 965.97,778.04 975,769.37 C992.82,752.26 1010.3918,743.0315 1034.2818,736.1915 " fill="transparent" id="depositFiat-to-fiatAuthConf" style="stroke:#181818;stroke-width:1;stroke-dasharray:7.0,7.0;"/><polygon fill="#181818" points="1040.05,734.54,1030.2966,733.1718,1035.2431,735.9163,1032.4987,740.8628,1040.05,734.54" style="stroke:#181818;stroke-width:1;"/><text fill="#000000" font-family="sans-serif" font-size="13" lengthAdjust="spacing" textLength="53.8726" x="913" y="792.4369">includes</text></g><!--reverse link openOrder to buy--><g id="link_openOrder_buy"><path d="M328.6827,1275.7456 C395.9227,1281.1256 482.61,1288.06 532.78,1292.07 " fill="transparent" id="openOrder-backto-buy" style="stroke:#181818;stroke-width:1;"/><polygon fill="transparent" points="310.74,1274.31,328.2041,1281.7265,329.1612,1269.7647,310.74,1274.31" style="stroke:#181818;stroke-width:1;"/></g><!--reverse link openOrder to sell--><g id="link_openOrder_sell"><path d="M324.5416,1259.9425 C392.6216,1251.4525 485.02,1239.91 535.17,1233.66 " fill="transparent" id="openOrder-backto-sell" style="stroke:#181818;stroke-width:1;"/><polygon fill="transparent" points="306.68,1262.17,325.2841,1265.8964,323.7992,1253.9887,306.68,1262.17" style="stroke:#181818;stroke-width:1;"/></g><!--reverse link manage_alerts to modifyAlert--><g id="link_manage_alerts_modifyAlert"><path d="M333.5719,1599.7591 C388.2419,1605.1891 447.1,1611.02 500.25,1616.29 " fill="transparent" id="manage_alerts-backto-modifyAlert" style="stroke:#181818;stroke-width:1;"/><polygon fill="transparent" points="315.66,1597.98,332.9788,1605.7297,334.1649,1593.7884,315.66,1597.98" style="stroke:#181818;stroke-width:1;"/></g><!--reverse link manage_alerts to deleteAlert--><g id="link_manage_alerts_deleteAlert"><path d="M331.6316,1581.8488 C387.5016,1575.4088 449.58,1568.26 503.41,1562.06 " fill="transparent" id="manage_alerts-backto-deleteAlert" style="stroke:#181818;stroke-width:1;"/><polygon fill="transparent" points="313.75,1583.91,332.3187,1587.8094,330.9445,1575.8883,313.75,1583.91" style="stroke:#181818;stroke-width:1;"/></g><!--reverse link verifyAlert to sendAlert--><g id="link_verifyAlert_sendAlert"><path d="M348.7511,1455.7961 C399.2711,1458.5461 454.23,1461.53 498.95,1463.97 " fill="transparent" id="verifyAlert-backto-sendAlert" style="stroke:#181818;stroke-width:1;stroke-dasharray:7.0,7.0;"/><polygon fill="#181818" points="342.76,1455.47,351.5293,1459.9533,347.7526,1455.7418,351.9641,1451.9651,342.76,1455.47" style="stroke:#181818;stroke-width:1;"/><text fill="#000000" font-family="sans-serif" font-size="13" lengthAdjust="spacing" textLength="53.8726" x="388" y="1454.4369">includes</text></g><!--link register to verify_identity--><g id="link_register_verify_identity"><path d="M326.65,406.12 C370.75,406.54 420.1603,407.0125 466.0803,407.4525 " fill="transparent" id="register-to-verify_identity" style="stroke:#181818;stroke-width:1;stroke-dasharray:7.0,7.0;"/><polygon fill="#181818" points="472.08,407.51,463.1187,403.424,467.0802,407.4621,463.0421,411.4236,472.08,407.51" style="stroke:#181818;stroke-width:1;"/><text fill="#000000" font-family="sans-serif" font-size="13" lengthAdjust="spacing" textLength="53.8726" x="388" y="403.4369">includes</text></g><!--reverse link manageUsers to user_verif--><g id="link_manageUsers_user_verif"><path d="M337.1064,177.8587 C391.5464,175.0687 448.28,172.17 500.31,169.5 " fill="transparent" id="manageUsers-backto-user_verif" style="stroke:#181818;stroke-width:1;"/><polygon fill="transparent" points="319.13,178.78,337.4135,183.8509,336.7993,171.8666,319.13,178.78" style="stroke:#181818;stroke-width:1;"/></g><!--reverse link manageUsers to user_block--><g id="link_manageUsers_user_block"><path d="M314.9141,165.2832 C375.5941,149.5532 461.15,127.38 518.93,112.4 " fill="transparent" id="manageUsers-backto-user_block" style="stroke:#181818;stroke-width:1;"/><polygon fill="transparent" points="297.49,169.8,316.4197,171.0912,313.4085,159.4752,297.49,169.8" style="stroke:#181818;stroke-width:1;"/></g><!--reverse link manage_coins to addCoin--><g id="link_manage_coins_addCoin"><path d="M348.9571,269.4812 C406.8171,277.0712 464.5,284.64 513.01,291.01 " fill="transparent" id="manage_coins-backto-addCoin" style="stroke:#181818;stroke-width:1;"/><polygon fill="transparent" points="331.11,267.14,348.1767,275.4302,349.7375,263.5321,331.11,267.14" style="stroke:#181818;stroke-width:1;"/></g><!--reverse link manage_coins to deleteCoin--><g id="link_manage_coins_deleteCoin"><path d="M356.4971,248.1113 C408.4371,244.1213 454.54,240.58 500.64,237.04 " fill="transparent" id="manage_coins-backto-deleteCoin" style="stroke:#181818;stroke-width:1;"/><polygon fill="transparent" points="338.55,249.49,356.9567,254.0937,356.0376,242.1289,338.55,249.49" style="stroke:#181818;stroke-width:1;"/></g><!--link t to register--><g id="link_t_register"><path d="M30.73,1083.05 C33.71,946.36 46.92,488.39 91,441.37 C111.05,419.98 135.135,410.9807 163.505,406.7707 " fill="transparent" id="t-to-register" style="stroke:#181818;stroke-width:1;"/><polygon fill="#181818" points="169.44,405.89,159.9503,403.2544,164.4942,406.6239,161.1246,411.1678,169.44,405.89" style="stroke:#181818;stroke-width:1;"/></g><!--link t to login--><g id="link_t_login"><path d="M31.19,1083.23 C35.51,955.49 52.23,548.38 91,505.37 C120.71,472.41 168.4949,467.9584 204.4749,469.4084 " fill="transparent" id="t-to-login" style="stroke:#181818;stroke-width:1;"/><polygon fill="#181818" points="210.47,469.65,201.6384,465.2908,205.4741,469.4487,201.3162,473.2843,210.47,469.65" style="stroke:#181818;stroke-width:1;"/></g><!--link t to manage_wallet--><g id="link_t_manage_wallet"><path d="M37.54,1083.05 C46.15,1045.83 62.81,988.87 91,946.37 C126.82,892.37 183.031,848.8913 217.161,825.2013 " fill="transparent" id="t-to-manage_wallet" style="stroke:#181818;stroke-width:1;"/><polygon fill="#181818" points="222.09,821.78,212.4157,823.6259,217.9825,824.6311,216.9774,830.1979,222.09,821.78" style="stroke:#181818;stroke-width:1;"/></g><!--link t to changePassword--><g id="link_t_changePassword"><path d="M30.3,1083.08 C31.78,980.77 40.48,703.79 91,630.37 C112.22,599.54 143.0616,581.4493 175.3816,568.6493 " fill="transparent" id="t-to-changePassword" style="stroke:#181818;stroke-width:1;"/><polygon fill="#181818" points="180.96,566.44,171.1195,566.035,176.3113,568.2811,174.0652,573.4729,180.96,566.44" style="stroke:#181818;stroke-width:1;"/></g><!--link t to search--><g id="link_t_search"><path d="M41.9,1083.16 C51.39,1058.96 67.12,1029.02 91,1011.37 C116.49,992.53 144.4371,984.6901 174.1171,980.9501 " fill="transparent" id="t-to-search" style="stroke:#181818;stroke-width:1;"/><polygon fill="#181818" points="180.07,980.2,170.6405,977.3566,175.1092,980.8251,171.6407,985.2938,180.07,980.2" style="stroke:#181818;stroke-width:1;"/></g><!--link t to openOrder--><g id="link_t_openOrder"><path d="M40.86,1159.63 C50.08,1185.19 65.91,1217.46 91,1236.37 C116.98,1255.95 146.0104,1263.8048 176.2704,1267.3348 " fill="transparent" id="t-to-openOrder" style="stroke:#181818;stroke-width:1;"/><polygon fill="#181818" points="182.23,1268.03,173.7541,1263.0141,177.2637,1267.4507,172.8271,1270.9602,182.23,1268.03" style="stroke:#181818;stroke-width:1;"/></g><!--link t to CancelOrder--><g id="link_t_CancelOrder"><path d="M32.15,1159.51 C36.6,1200.84 50.11,1265.77 91,1302.37 C114.65,1323.54 142.3908,1331.8715 172.4208,1335.3915 " fill="transparent" id="t-to-CancelOrder" style="stroke:#181818;stroke-width:1;"/><polygon fill="#181818" points="178.38,1336.09,169.9069,1331.0694,173.414,1335.5079,168.9755,1339.015,178.38,1336.09" style="stroke:#181818;stroke-width:1;"/></g><!--link t to hist_trade--><g id="link_t_hist_trade"><path d="M52,1121.37 C78.29,1121.37 117.81,1121.37 158.26,1121.37 " fill="transparent" id="t-to-hist_trade" style="stroke:#181818;stroke-width:1;"/><polygon fill="#181818" points="164.26,1121.37,155.26,1117.37,159.26,1121.37,155.26,1125.37,164.26,1121.37" style="stroke:#181818;stroke-width:1;"/></g><!--link t to clientSupport--><g id="link_t_clientSupport"><path d="M52.09,1136.46 C63.35,1143.61 77.48,1151.78 91,1157.37 C117.61,1168.37 142.222,1175.6154 169.122,1181.9954 " fill="transparent" id="t-to-clientSupport" style="stroke:#181818;stroke-width:1;"/><polygon fill="#181818" points="174.96,1183.38,167.126,1177.411,170.095,1182.2261,165.2798,1185.1951,174.96,1183.38" style="stroke:#181818;stroke-width:1;"/></g><!--link t to chart_visual--><g id="link_t_chart_visual"><path d="M52.26,1105.5 C63.44,1098.16 77.46,1089.87 91,1084.37 C119.2,1072.91 145.9289,1065.8588 174.0289,1060.1788 " fill="transparent" id="t-to-chart_visual" style="stroke:#181818;stroke-width:1;"/><polygon fill="#181818" points="179.91,1058.99,170.2959,1056.8524,175.0091,1059.9806,171.8809,1064.6939,179.91,1058.99" style="stroke:#181818;stroke-width:1;"/></g><!--link t to createAlert--><g id="link_t_createAlert"><path d="M36.27,1159.62 C51.69,1253.66 90.29,1488.62 91,1489.37 C114.11,1513.68 144.2509,1522.0995 175.9109,1524.7495 " fill="transparent" id="t-to-createAlert" style="stroke:#181818;stroke-width:1;"/><polygon fill="#181818" points="181.89,1525.25,173.255,1520.5132,176.9074,1524.8329,172.5877,1528.4854,181.89,1525.25" style="stroke:#181818;stroke-width:1;"/></g><!--link t to notif_history--><g id="link_t_notif_history"><path d="M32.12,1159.4 C38.68,1270.78 60.06,1590.67 91,1625.37 C108.62,1645.14 128.7673,1654.2894 154.5273,1659.4594 " fill="transparent" id="t-to-notif_history" style="stroke:#181818;stroke-width:1;"/><polygon fill="#181818" points="160.41,1660.64,152.3731,1654.9472,155.5078,1659.6561,150.7989,1662.7908,160.41,1660.64" style="stroke:#181818;stroke-width:1;"/></g><!--link t to manage_alerts--><g id="link_t_manage_alerts"><path d="M29.99,1159.44 C30.78,1254.53 38.02,1498.9 91,1556.37 C112.16,1579.33 138.89,1588.1786 168.89,1591.6586 " fill="transparent" id="t-to-manage_alerts" style="stroke:#181818;stroke-width:1;"/><polygon fill="#181818" points="174.85,1592.35,166.3709,1587.3396,169.8833,1591.7739,165.449,1595.2863,174.85,1592.35" style="stroke:#181818;stroke-width:1;"/></g><!--reverse link verifyAlert to alertSystem--><g id="link_verifyAlert_alertSystem"><path d="M318.4894,1468.9095 C333.8994,1474.7595 344.03,1480.34 357,1490.37 C427.7,1545.06 401.39,1600.56 472,1655.37 C544.44,1711.6 645.55,1744.04 715.88,1761.13 " fill="transparent" id="verifyAlert-backto-alertSystem" style="stroke:#181818;stroke-width:1;"/><polygon fill="#181818" points="312.88,1466.78,319.8745,1473.7138,317.5545,1468.5546,322.7137,1466.2346,312.88,1466.78" style="stroke:#181818;stroke-width:1;"/></g><!--reverse link sendAlert to alertSystem--><g id="link_sendAlert_alertSystem"><path d="M609.7086,1481.5181 C633.4086,1490.2681 656.88,1502.08 677,1522.37 C738.77,1584.65 773.32,1684.5 788.51,1738.94 " fill="transparent" id="sendAlert-backto-alertSystem" style="stroke:#181818;stroke-width:1;"/><polygon fill="#181818" points="604.08,1479.44,611.1376,1486.3096,608.7705,1481.1717,613.9083,1478.8047,604.08,1479.44" style="stroke:#181818;stroke-width:1;"/></g><!--link a to verify_identity--><g id="link_a_verify_identity"><path d="M50.9,107.35 C60.97,92.99 74.48,78.23 91,70.37 C197.76,19.59 257.84,6 357,70.37 C462.3,138.72 398,226.95 472,328.37 C489.32,352.11 509.9517,370.3151 529.2717,385.1551 " fill="transparent" id="a-to-verify_identity" style="stroke:#181818;stroke-width:1;"/><polygon fill="#181818" points="534.03,388.81,529.3292,380.1554,530.0647,385.7642,524.4559,386.4998,534.03,388.81" style="stroke:#181818;stroke-width:1;"/></g><!--link a to manage_coins--><g id="link_a_manage_coins"><path d="M51.51,178.37 C61.93,191.97 75.54,206.76 91,216.37 C113.44,230.32 134.7283,238.0508 160.0283,243.9808 " fill="transparent" id="a-to-manage_coins" style="stroke:#181818;stroke-width:1;"/><polygon fill="#181818" points="165.87,245.35,158.0203,239.4017,161.0019,244.209,156.1947,247.1906,165.87,245.35" style="stroke:#181818;stroke-width:1;"/></g><!--link a to manageUsers--><g id="link_a_manageUsers"><path d="M51.6,149.05 C83.33,154.46 137.7654,163.7414 183.0354,171.4614 " fill="transparent" id="a-to-manageUsers" style="stroke:#181818;stroke-width:1;"/><polygon fill="#181818" points="188.95,172.47,180.7505,167.014,184.0212,171.6295,179.4057,174.9001,188.95,172.47" style="stroke:#181818;stroke-width:1;"/></g><!--link a to handleSupport--><g id="link_a_handleSupport"><path d="M51.6,141.69 C79.04,137.01 121.9754,129.6885 163.9654,122.5285 " fill="transparent" id="a-to-handleSupport" style="stroke:#181818;stroke-width:1;"/><polygon fill="#181818" points="169.88,121.52,160.3357,119.0897,164.9511,122.3605,161.6804,126.9759,169.88,121.52" style="stroke:#181818;stroke-width:1;"/></g><!--reverse link miningTransaction to blockchainNetwork--><g id="link_miningTransaction_blockchainNetwork"><path d="M1314.2185,823.955 C1344.8885,824.645 1369.67,825.2 1395.8,825.79 " fill="transparent" id="miningTransaction-backto-blockchainNetwork" style="stroke:#181818;stroke-width:1;"/><polygon fill="#181818" points="1308.22,823.82,1317.1278,828.0214,1313.2187,823.9325,1317.3077,820.0234,1308.22,823.82" style="stroke:#181818;stroke-width:1;"/></g><!--reverse link fiatAuthConf to PaymentGateway--><g id="link_fiatAuthConf_PaymentGateway"><path d="M1282.578,721.0855 C1325.678,719.9755 1366.44,718.93 1402.71,718 " fill="transparent" id="fiatAuthConf-backto-PaymentGateway" style="stroke:#181818;stroke-width:1;"/><polygon fill="#181818" points="1276.58,721.24,1285.68,725.007,1281.5783,721.1113,1285.474,717.0096,1276.58,721.24" style="stroke:#181818;stroke-width:1;"/></g><!--SRC=[ZLV1Rjiu4BthAmOvxCtvW4KG8FMYkmjqswBTRey68z8s4OLoIIfUDys_TpX3IQH81VN5ukERcIToE4DrQk_1zs3ruUX1QgjQhti3JIDQtrku-gIS4iF_yARhsuVjKMXp1SB1VHYsOVXU-NDl7qR-Ht5vLCR3dyAhixWGEM8H6fd_MY6L9O8ViJlv60E84VfySLuzAf0AJE_rNhSYA6HIfwnd0YeEseKvT0fLTCBlUyjc8P0sXojuRf05-3k9za4S56amJl0hxxNm88o4rbvElYSw_WQdMk6GYyhG2p6UHASboO1-3_wemC-EI1cJK_VJB_TwD_YZ6Ap-pkv-Wsrlzje-pYyPT0LMc83AZ_ozB5xixM2aWt-44OUmz5VFWTYC9bDq8YZuAhfEUHPEoEvCI6dmXphrJZDLyZEKB5x1aP2IjpHJMj3YL_Xl4I_PNxK_IYlEn3p7mRgEAfsLm8gKgaaGCnfKWXrL-m2yS73K3hENqv-XNOJM3D-8JfXMaGKXktj680yusMSx1JS_DflSxZNYYgGQCxxxQvouLnDbsf7CGxQLTSeYEyO4IuFy0YKBL4IC-tvzVLixfB-3DcqtIEMM8LwrgvXbIHEiydEy7kWN3LwQwVNISaQLxhbCiWydPU237IjkZqCQbSpxWTCM_sjfxbJNqNnucESdXxmLQBms5UoQwWdQXhJj4fKChEZ4lcJR8xIzDYuA2a3jV0dhuKcx0Sks4sDT9NZ7S6dqfDKvL7Ni7-bP3iyxWaiJgxuDodbeEnqwe1jEfzvoDMFeCoFDMB4NDVjzqjuSTeAxqDqS9BjPgt0AkofJEH81D2xPV7QvRRgqt3DICUYbtb_OWFa4aFkA6gcm9gY4pa2k9Wl9AL7rMk4bxk2LHNbITbAD-M6avYKbIJovia1EONTdEuWvPUGAbyjsb9Vc25rJfjew6IQ1uURwUdQT7ksacKzvSTUs_O09bNJpffPz1uo8XqmmdQHCOCb_rn_YLQiBJ_MEXjSfJAxWq1iKv1nUzUHuUd3kOuHAs_zu3xuuPHreYQgrloGRi1ingEpa93kKmIL_NgtfIlCohyUyQk4gYLui7VZdzSiFIKmE0urNamh7N9l2mux0IWaDj-C5bR15SlFgK6fNtDKvx6VrRQWSmZjySMm4sHcdcT9EI4b6VA6MSelFgoTx8l8uuwPXME_IMycek2bZ_uLNRhpKn-e9Vpk7PPQhCSsC4tDJ2RNLmsPpEsLI77Agnq5-rMLiaTQZczXQU33tJXwdNOgHf4j4jrdzdqBD_MV4vkezgiohIQOyrXxyLak-WpOTVj9jRhDoqyorvYRioqn7M_AuE6GHpJ8dXVYCC99jGjEKbwCGilnUp6utWRBuIdpv2G00]--></g></svg>